# xmcd
#
# Track frame offsets: 
#        150
#        13463
#        27738
#        42980
#        53885
#        68375
#        77293
#        91635
#        109698
#        121448
#        138643
#
# Disc length: 2039 seconds
#
# Revision: 2
# Processed by: cddbd v1.5.2PL0 Copyright (c) Steve Scherf et al.
# Submitted via: ExactAudioCopy v1.0b3
#
DISCID=8c07f50b
DTITLE=PJ Harvey - White Chalk
DYEAR=2007
DGENRE=
TTITLE0=The Devil
TTITLE1=Dear Darkness
TTITLE2=Grow Grow Grow
TTITLE3=When Under Ether
TTITLE4=White Chalk
TTITLE5=Broken Harp
TTITLE6=Silence
TTITLE7=To Talk to You
TTITLE8=The Piano
TTITLE9=Before Departure
TTITLE10=The Mountain
EXTD=
EXTT0=
EXTT1=
EXTT2=
EXTT3=
EXTT4=
EXTT5=
EXTT6=
EXTT7=
EXTT8=
EXTT9=
EXTT10=
PLAYORDER=
